<?xml version="1.0" encoding="UTF-8"?>
<!DOCTYPE svg PUBLIC "-//W3C//DTD SVG 1.1//EN" "http://www.w3.org/Graphics/SVG/1.1/DTD/svg11.dtd">
<!-- Creator: CorelDRAW 2020 (64-Bit Versión de evaluación) -->
<svg xmlns="http://www.w3.org/2000/svg" xml:space="preserve" width="67.4977mm" height="76.5498mm" version="1.1" style="shape-rendering:geometricPrecision; text-rendering:geometricPrecision; image-rendering:optimizeQuality; fill-rule:evenodd; clip-rule:evenodd"
viewBox="0 0 731.36 829.44"
 xmlns:xlink="http://www.w3.org/1999/xlink"
 xmlns:xodm="http://www.corel.com/coreldraw/odm/2003">
 <defs>
  <style type="text/css">
   <![CDATA[
    .fil0 {fill:#006CB4;fill-rule:nonzero}
    .fil1 {fill:#28A3D9;fill-rule:nonzero}
    .fil2 {fill:#EBEBEB;fill-rule:nonzero}
    .fil3 {fill:white;fill-rule:nonzero}
   ]]>
  </style>
 </defs>
 <g id="Capa_x0020_1">
  <metadata id="CorelCorpID_0Corel-Layer"/>
  <polygon class="fil0" points="365.23,829.44 66.56,746.53 -0,0 731.36,0 664.73,746.41 365.23,829.44 "/>
  <polygon class="fil1" points="607.69,698.88 664.63,61.04 365.68,61.04 365.68,765.98 607.69,698.88 "/>
  <polygon class="fil2" points="152.58,337.92 160.79,429.47 365.68,429.47 365.68,337.92 152.58,337.92 "/>
  <polygon class="fil2" points="136.09,152.6 144.42,244.16 365.68,244.16 365.68,152.6 136.09,152.6 "/>
  <polygon class="fil2" points="365.68,575.7 365.28,575.81 263.31,548.28 256.79,475.25 164.88,475.25 177.71,619.01 365.26,671.08 365.68,670.96 365.68,575.7 "/>
  <polygon class="fil3" points="578.19,337.92 594.72,152.6 365.36,152.6 365.36,244.16 494.38,244.16 486.05,337.92 365.36,337.92 365.36,429.47 478.11,429.47 467.48,548.22 365.36,575.78 365.36,671.03 553.06,619.01 554.44,603.55 575.95,362.5 578.19,337.92 "/>
 </g>
</svg>
